<svg id="eA8JUEYnPfZ1" xmlns="http://www.w3.org/2000/svg" xmlns:xlink="http://www.w3.org/1999/xlink" viewBox="0 0 1000 1000" shape-rendering="geometricPrecision" text-rendering="geometricPrecision"><g transform="matrix(.1 0 0-.1 0 1000)"><path d="M4775,9504c-230-55-437-199-575-399-48-70-108-202-131-290-26-100-36-291-20-395c17-108,71-257,127-352c96-162,292-328,463-392c124-47,182-57,428-71c134-8,291-22,350-31c320-47,680-184,972-369c810-513,1269-1412,1211-2373-22-362-109-681-275-1012-200-396-537-768-920-1015-414-267-895-406-1405-407-374,0-678,60-1007,198-528,221-971,614-1261,1121-203,356-310,736-332,1183-12,238-16,273-46,378-47,160-130,297-255,418-90,86-146,125-252,174-144,68-228,84-417,84-138,0-178-4-245-22-89-25-222-85-291-133-200-137-346-349-398-576-22-97-22-495-1-699c76-717,338-1449,730-2037c171-258,335-457,570-692c513-515,1121-886,1829-1115c262-84,585-151,906-187c216-24,724-24,938,0c705,79,1406,322,1967,680c986,631,1687,1609,1965,2741c91,372,124,659,124,1086c0,338-12,486-59,768-96,567-337,1196-638,1667-748,1169-1974,1926-3349,2070-194,20-618,19-703-1Z" fill="#0b0"/></g></svg>
